<svg width="220" height="55" viewBox="0 0 220 55" fill="none" xmlns="http://www.w3.org/2000/svg">
<g clip-path="url(#clip0)">
<path fill-rule="evenodd" clip-rule="evenodd" d="M184.38 12.2253L182.784 3.3335L174.9 26.6968L160.935 33.8827L170.214 36.7898L170.221 36.7969L173.189 37.7209L175.001 45.7598L175.267 46.9113L175.561 48.2476L175.568 48.2618L176.956 54.4171L180.865 46.3924L180.88 46.364L181.728 44.6297L182.461 43.1229L185.091 37.7209L197.108 27.4573L186.665 24.9696L185.516 18.5797L185.005 15.7153L184.394 12.3391L184.38 12.2253Z" fill="#0D7EE8"/>
<path fill-rule="evenodd" clip-rule="evenodd" d="M189.174 3.09188L202.104 24.2873L202.355 24.6924L202.83 24.8417L216.96 29.1703L203.433 36.6264L202.959 36.8894L202.815 37.4011L198.654 52.5265L187.708 42.0283L187.133 41.4739L186.378 41.7369L182.461 43.1229L181.728 44.6297L186.278 43.0163L186.68 42.8812L199.315 55L204.073 37.7352L220.007 28.8576L203.153 23.6902L188.721 0L185.005 15.7153L185.516 18.5797L189.174 3.09188Z" fill="#0D7EE8"/>
<path fill-rule="evenodd" clip-rule="evenodd" d="M172.845 37.6143L171.623 37.2305L167.785 41.8434L159.383 52.5193L175.267 46.9113L175.001 45.7598L162.876 50.0458L169.51 41.616L172.845 37.6143Z" fill="#0D7EE8"/>
<path fill-rule="evenodd" clip-rule="evenodd" d="M2.87469 26.9315V21.6291H9.96127C10.7901 21.6461 11.6022 21.3967 12.2755 20.9183C13.4686 19.9517 13.598 18.0041 13.598 16.81C13.598 15.6159 13.4902 13.839 12.448 12.8794C12.036 12.5344 11.5569 12.2763 11.0402 12.121C10.5236 11.9658 9.98032 11.9167 9.44379 11.9767H2.22785C1.91789 11.9569 1.60705 11.9982 1.31339 12.0983C1.01973 12.1983 0.749119 12.3551 0.517293 12.5596C0.315839 12.7827 0.165344 13.0461 0.0760489 13.3319C-0.0132467 13.6176 -0.0392476 13.9191 -0.000184767 14.2157V26.9386L2.87469 26.9315ZM2.87469 19.383V15.1184C2.85562 14.9931 2.86301 14.8652 2.89641 14.7429C2.92981 14.6205 2.98849 14.5064 3.06875 14.4076C3.15527 14.3299 3.25826 14.2724 3.37019 14.2392C3.48211 14.206 3.60013 14.1979 3.71559 14.2157H8.32259C8.95885 14.1543 9.59459 14.3375 10.0978 14.7274C10.524 15.3246 10.7156 16.0548 10.6369 16.7816C10.6984 17.5021 10.5218 18.2229 10.1338 18.8357C9.88739 19.0611 9.59243 19.2281 9.27119 19.3242C8.94994 19.4202 8.61082 19.4428 8.27946 19.3901L2.87469 19.383ZM25.6797 26.9315V25.0053H20.0808C19.1537 25.0053 18.1115 24.856 17.7666 23.6548C17.6662 23.1419 17.6157 22.6206 17.6156 22.0982H24.271C24.4956 22.115 24.7213 22.0858 24.934 22.0124C25.1467 21.939 25.3418 21.823 25.5072 21.6717C25.7101 21.4375 25.8626 21.1648 25.9553 20.8702C26.048 20.5757 26.0789 20.2655 26.0462 19.9588C26.0462 18.5372 25.7443 17.1157 24.4291 16.284C23.2573 15.7052 21.9462 15.4591 20.6414 15.5733C19.5634 15.5733 17.6156 15.5733 16.3651 16.6394C15.1145 17.7056 14.9995 19.248 14.9995 21.3874C14.9995 22.9014 15.0642 24.4225 15.8188 25.5099C16.7532 26.8391 18.1547 26.9315 19.3262 26.9315H25.6797ZM17.6156 20.172C17.5282 19.4834 17.7137 18.788 18.1331 18.2316C18.4537 17.9409 18.8346 17.7228 19.2492 17.5927C19.6638 17.4626 20.1022 17.4235 20.5336 17.4782C21.2901 17.404 22.0498 17.5843 22.6898 17.9899C22.9171 18.174 23.0997 18.4063 23.2241 18.6696C23.3485 18.9329 23.4115 19.2204 23.4085 19.511C23.4085 19.8308 23.3438 20.172 22.8479 20.172H17.6156ZM37.136 26.9315V25.0053H33.0609C32.0044 25.0053 30.7754 24.8774 30.186 23.8112C29.9074 23.0586 29.7804 22.2593 29.8123 21.4585C29.8016 20.7426 29.8691 20.0277 30.0135 19.3262C30.2866 18.3666 31.1132 17.5279 32.8165 17.5279H36.9061V15.6372H31.9685C31.3318 15.5902 30.6922 15.6738 30.0899 15.883C29.4875 16.0922 28.9354 16.4223 28.4683 16.8527C27.1962 18.1534 27.1674 20.0796 27.1674 21.4514C27.1674 23.072 27.2537 24.4651 28.2096 25.5739C28.6383 26.0441 29.1664 26.4151 29.7564 26.6608C30.3464 26.9065 30.9838 27.0207 31.6235 26.9955L37.136 26.9315ZM40.5068 15.6372C40.2219 15.5959 39.9311 15.6249 39.6602 15.7216C39.3894 15.8184 39.1469 15.9798 38.9544 16.1916C38.8017 16.3742 38.688 16.5855 38.62 16.8127C38.5521 17.0399 38.5314 17.2784 38.5591 17.5137V26.967H41.089V18.1889C41.082 17.9946 41.1429 17.8038 41.2615 17.6487C41.3832 17.5527 41.5377 17.5069 41.6927 17.5208H46.005C46.1656 17.5174 46.3234 17.562 46.4578 17.6487C46.5765 17.8029 46.6306 17.9964 46.6088 18.1889V26.9315H49.1387V17.4782C49.1924 17.0073 49.0612 16.534 48.7721 16.1561C48.5719 15.9464 48.3241 15.7867 48.0491 15.6903C47.7742 15.5939 47.4801 15.5635 47.1909 15.6017L40.5068 15.6372ZM62.0684 26.967V17.201C62.1018 16.9708 62.0814 16.7361 62.0087 16.515C61.936 16.2939 61.8131 16.0922 61.6493 15.9254C61.4855 15.7586 61.2852 15.6311 61.0638 15.5528C60.8424 15.4746 60.6059 15.4475 60.3722 15.4738C60.0668 15.4533 59.7613 15.5137 59.4872 15.6486C59.2132 15.7835 58.9803 15.9881 58.8126 16.2414L53.7385 23.6548C53.6522 23.8112 53.5875 23.9604 53.4366 23.9604C53.2857 23.9604 53.2569 23.8538 53.2569 23.6548L53.3647 15.6372H50.842V25.4531C50.8171 25.6731 50.8432 25.8959 50.9184 26.1045C50.9936 26.3131 51.1158 26.502 51.2759 26.6568C51.4359 26.8117 51.6296 26.9284 51.8421 26.9982C52.0546 27.068 52.2804 27.0889 52.5023 27.0594C52.8359 27.0855 53.17 27.0138 53.4627 26.8533C53.7554 26.6928 53.9938 26.4505 54.1481 26.1568L59.1792 18.8713C59.3517 18.6154 59.4163 18.5728 59.481 18.5728C59.5457 18.5728 59.6104 18.5728 59.6104 18.658V18.8713L59.5242 26.9315L62.0684 26.967ZM66.3304 26.967H69.5287C70.7002 26.967 72.4467 26.9031 73.5536 25.3394C74.3729 24.1879 74.4591 22.5602 74.4591 21.0747C74.4591 19.8095 74.416 18.0965 73.2517 16.8811C72.7985 16.4608 72.265 16.1342 71.6824 15.9206C71.0999 15.707 70.4801 15.6107 69.8593 15.6372H65.8633C65.3573 15.604 64.8539 15.7309 64.4258 15.9997C64.217 16.1656 64.0499 16.3771 63.9377 16.6175C63.8254 16.858 63.7711 17.121 63.779 17.3858V30.5636H66.3089V26.9315L66.3304 26.967ZM66.3304 25.0408V18.0539C66.3314 17.9817 66.3472 17.9104 66.3768 17.8445C66.4065 17.7785 66.4494 17.7192 66.5029 17.6701C66.6025 17.5909 66.7215 17.5394 66.8479 17.5208H69.3347C69.7913 17.4868 70.2475 17.5919 70.6419 17.8218C71.0364 18.0518 71.3502 18.3957 71.5411 18.8073C71.8121 19.5904 71.915 20.4207 71.843 21.2453C71.843 22.9298 71.6058 23.6122 71.3687 23.9604C71.1374 24.3102 70.8151 24.5919 70.4357 24.7757C70.0562 24.9596 69.6337 25.0389 69.2125 25.0053L66.3304 25.0408ZM76.3925 15.6372V17.5563H82.0273C82.258 17.5334 82.491 17.566 82.7063 17.6514C82.9215 17.7368 83.1127 17.8725 83.2635 18.0468C83.4962 18.3554 83.6108 18.7357 83.5869 19.1201V19.9019H78.6133C77.8559 19.8461 77.1062 20.083 76.5219 20.5629C76.1592 20.9199 75.8828 21.3535 75.7136 21.8311C75.5443 22.3086 75.4865 22.8179 75.5444 23.3208C75.5444 24.1808 75.6091 25.5881 76.5434 26.3984C77.1342 26.8428 77.8759 27.0441 78.6133 26.9599H84.09C84.6571 27.0212 85.2257 26.8576 85.6712 26.505C85.9974 26.1043 86.159 25.5968 86.124 25.0835V19.1485C86.2034 18.1837 85.902 17.2259 85.2831 16.476C84.6348 15.9036 83.7868 15.6028 82.9185 15.6372H76.3925ZM83.5797 21.8352V24.4438C83.7091 24.785 83.1916 25.1546 82.861 25.0408H79.3392C79.0306 25.0319 78.7362 24.9104 78.5127 24.6997C78.2471 24.3329 78.1246 23.8836 78.1677 23.4345C78.1135 23.0093 78.2128 22.5789 78.448 22.219C78.5649 22.0901 78.7095 21.9887 78.8711 21.9222C79.0328 21.8558 79.2075 21.8261 79.3824 21.8352H83.5797ZM93.8071 26.967V17.5208H98.1194V15.6372H87.0008V17.5563H91.3131V26.9315L93.8071 26.967ZM104.789 15.4738C103.409 15.4738 101.44 15.5164 100.168 16.6679C98.8956 17.8193 98.6944 20.0441 98.6944 21.3092C98.6944 22.4607 98.8022 24.6001 100.168 25.8369C101.533 27.0737 103.409 27.0594 104.789 27.0594C106.169 27.0594 108.21 26.9741 109.418 25.8369C110.259 25.0479 110.855 23.6335 110.855 21.224C110.855 20.0441 110.719 17.862 109.418 16.6679C108.117 15.4738 106.176 15.4738 104.789 15.4738ZM101.339 21.3235C101.339 20.6127 101.339 19.1414 102.058 18.3311C102.777 17.5208 103.999 17.4284 104.818 17.4284C105.314 17.3747 105.816 17.4276 106.29 17.5834C106.764 17.7392 107.198 17.9942 107.563 18.3311C108.081 18.9855 108.336 19.8051 108.282 20.634V21.3448C108.282 22.347 108.282 23.4131 107.52 24.2519C107.164 24.597 106.735 24.8601 106.264 25.0223C105.793 25.1844 105.292 25.2418 104.796 25.1901C104.292 25.227 103.786 25.1545 103.313 24.9778C102.84 24.801 102.411 24.5241 102.058 24.1666C101.494 23.3291 101.24 22.3248 101.339 21.3235ZM114.873 26.967H118.071C119.235 26.967 120.989 26.9031 122.089 25.3394C122.915 24.1879 123.001 22.5602 123.001 21.0747C123.001 19.8095 122.958 18.0965 121.787 16.8811C121.333 16.4589 120.799 16.1312 120.215 15.9175C119.631 15.7038 119.009 15.6085 118.387 15.6372H114.391C113.885 15.603 113.381 15.73 112.954 15.9997C112.745 16.1656 112.578 16.3771 112.466 16.6175C112.353 16.858 112.299 17.121 112.307 17.3858V30.5636H114.837V26.9315L114.873 26.967ZM114.873 25.0408V18.0539C114.874 17.9817 114.889 17.9104 114.919 17.8445C114.949 17.7785 114.992 17.7192 115.045 17.6701C115.145 17.5909 115.264 17.5394 115.39 17.5208H117.87C118.318 17.4981 118.763 17.6085 119.147 17.8377C119.531 18.067 119.837 18.4047 120.026 18.8073C120.297 19.5904 120.4 20.4207 120.328 21.2453C120.328 22.9298 120.091 23.6122 119.853 23.9604C119.622 24.3097 119.299 24.5909 118.92 24.7747C118.541 24.9585 118.118 25.0381 117.697 25.0053L114.873 25.0408ZM134.954 26.967V15.6372H132.424V20.1649H126.926V15.6372H124.396V26.9315H126.926V22.0342H132.395V26.9102L134.954 26.967ZM136.65 15.6372V25.2327C136.617 25.4716 136.639 25.7146 136.715 25.9436C136.791 26.1726 136.919 26.3816 137.088 26.5548C137.257 26.7118 137.458 26.8301 137.678 26.9013C137.898 26.9726 138.131 26.995 138.36 26.967H144.175C144.961 27.0495 145.75 26.8336 146.381 26.3629C147.179 25.6521 147.244 24.3372 147.244 23.5624C147.337 22.5765 147.07 21.5902 146.489 20.7833C146.217 20.4907 145.882 20.2623 145.509 20.1147C145.136 19.967 144.734 19.9041 144.333 19.9303H139.165V15.6372H136.65ZM148.609 26.967H151.132V15.6372H148.609V26.9315V26.967ZM139.18 21.821H143.291C143.48 21.8055 143.669 21.8298 143.848 21.8923C144.026 21.9548 144.189 22.0541 144.326 22.1835C144.573 22.5305 144.681 22.9563 144.628 23.3776C144.673 23.8208 144.566 24.2662 144.326 24.6428C144.176 24.7782 143.998 24.8805 143.805 24.943C143.611 25.0055 143.407 25.0267 143.205 25.0053H139.899C139.694 25.025 139.49 24.9637 139.331 24.8347C139.201 24.6559 139.147 24.434 139.18 24.2163V21.821ZM164.083 26.9315V17.201C164.114 16.9749 164.093 16.745 164.023 16.528C163.952 16.3109 163.833 16.1123 163.674 15.9467C163.516 15.7811 163.322 15.6526 163.107 15.5708C162.891 15.489 162.66 15.4558 162.43 15.4738C162.126 15.4524 161.821 15.5123 161.548 15.6474C161.275 15.7824 161.043 15.9876 160.878 16.2414L155.775 23.6548C155.689 23.8112 155.624 23.9604 155.473 23.9604C155.322 23.9604 155.301 23.8538 155.301 23.6548L155.394 15.6372H152.864V25.4531C152.841 25.6728 152.868 25.895 152.943 26.1029C153.019 26.3109 153.141 26.4992 153.301 26.6537C153.461 26.8082 153.654 26.925 153.866 26.9953C154.078 27.0656 154.303 27.0875 154.524 27.0594C154.857 27.085 155.19 27.0131 155.481 26.8525C155.773 26.6919 156.01 26.4499 156.163 26.1568L161.194 18.8713C161.367 18.6154 161.431 18.5728 161.496 18.5728C161.561 18.5728 161.625 18.5728 161.625 18.658V18.8713L161.539 26.9315H164.083ZM158.506 13.5476C158.236 13.566 157.965 13.5301 157.709 13.4422C157.454 13.3542 157.219 13.216 157.018 13.0358C156.77 12.771 156.584 12.4556 156.472 12.1118H154.524C154.74 12.916 155.164 13.6509 155.753 14.2441C156.572 14.7862 157.535 15.0756 158.521 15.0756C159.506 15.0756 160.469 14.7862 161.288 14.2441C161.877 13.6496 162.303 12.9154 162.524 12.1118H160.555C160.443 12.4556 160.257 12.771 160.008 13.0358C159.808 13.216 159.573 13.3542 159.317 13.4422C159.062 13.5301 158.791 13.566 158.521 13.5476H158.506ZM43.9423 46.35L39.055 41.3034C38.8404 41.0878 38.6975 40.8126 38.6454 40.5145C38.7092 40.1552 38.9003 39.8302 39.1844 39.5976L43.4967 35.0202H40.5284L36.8773 39.0361C36.448 39.4249 36.1643 39.946 36.0723 40.5145C36.1177 41.0199 36.3507 41.4909 36.7264 41.8365L40.8949 46.35H43.9423ZM35.5764 46.35V35.0202H33.0609V46.35H35.5764ZM49.9508 34.8922C51.3308 34.8922 53.3 34.9349 54.5722 36.0934C55.8443 37.252 56.0096 39.4696 56.0096 40.6424C56.0096 43.0591 55.3843 44.4664 54.5722 45.2554C53.3647 46.3926 51.2445 46.4779 49.9508 46.4779C48.6571 46.4779 46.6016 46.3926 45.3223 45.2554C44.0429 44.1181 43.8848 41.8792 43.8848 40.7277C43.8848 39.5762 44.0142 37.2875 45.3223 36.0934C46.6303 34.8993 48.5637 34.8922 49.9508 34.8922ZM46.4722 40.7064C46.3572 41.7289 46.6118 42.7587 47.1909 43.6135C47.5526 43.9571 47.9854 44.2189 48.4594 44.3809C48.9335 44.5429 49.4374 44.6012 49.9364 44.5517C50.4323 44.6024 50.9333 44.5446 51.404 44.3824C51.8747 44.2203 52.3037 43.9578 52.6604 43.6135C53.3791 42.7819 53.3791 41.7086 53.3791 40.7064V39.9956C53.4312 39.1648 53.1758 38.3437 52.6604 37.6856C52.2952 37.3617 51.8653 37.1171 51.3986 36.9678C50.9319 36.8184 50.4387 36.7675 49.9508 36.8184C49.1315 36.8184 47.8953 36.9037 47.1837 37.714C46.4722 38.5243 46.465 39.9814 46.465 40.7064H46.4722ZM68.9969 38.1831C69.0616 38.0978 69.1262 37.9272 69.1909 37.9272C69.2556 37.9272 69.3203 37.9912 69.3203 38.1405L69.2125 46.35H71.7424V36.5199C71.7424 35.404 70.8081 34.8922 69.7731 34.8922C69.3574 34.8417 68.9369 34.9352 68.5831 35.1568C68.2293 35.3784 67.964 35.7144 67.8326 36.1076L64.9577 43.3149C64.8858 43.4216 64.7421 43.7627 64.6342 43.7627C64.5264 43.7627 64.3683 43.4216 64.3036 43.3149L61.4288 36.1076C61.2973 35.7144 61.0321 35.3784 60.6782 35.1568C60.3244 34.9352 59.9039 34.8417 59.4882 34.8922C58.4461 34.8922 57.5189 35.404 57.5189 36.5199V46.35H60.0488L59.941 38.1405C59.941 38.0765 59.941 37.9486 60.0704 37.9486C60.1998 37.9486 60.2213 38.1192 60.2429 38.1831L63.1824 45.5326C63.3093 45.8132 63.5156 46.0515 63.7764 46.2188C64.0372 46.386 64.3414 46.475 64.6522 46.475C64.9631 46.475 65.2672 46.386 65.5281 46.2188C65.7889 46.0515 65.9952 45.8132 66.122 45.5326L68.9969 38.1831ZM75.415 35.0202C75.129 34.9789 74.8372 35.0079 74.5652 35.1046C74.2932 35.2012 74.0494 35.3627 73.8554 35.5746C73.7052 35.7598 73.5936 35.9726 73.5269 36.2008C73.4603 36.4289 73.4401 36.6678 73.4673 36.9037V46.35H75.9972V37.6074C75.9913 37.4154 76.0522 37.2272 76.1697 37.0743C76.2914 36.9783 76.4459 36.9324 76.6009 36.9464H80.9132C81.0738 36.943 81.2316 36.9876 81.366 37.0743C81.426 37.1487 81.4702 37.2341 81.4961 37.3257C81.5221 37.4173 81.5291 37.5131 81.517 37.6074V46.35H84.0469V36.9037C84.102 36.4294 83.9679 35.9526 83.6731 35.5746C83.474 35.3654 83.2274 35.206 82.9537 35.1097C82.6801 35.0133 82.3871 34.9826 82.0991 35.0202H75.415ZM84.665 46.35H87.2595L90.7813 37.6074C90.8459 37.5008 90.8891 37.2875 90.9969 37.2875C91.1047 37.2875 91.1478 37.5008 91.2125 37.6074L94.7342 46.35H97.3288L92.6787 35.8304C92.5033 35.5435 92.2561 35.3062 91.9608 35.1415C91.6655 34.9768 91.3323 34.8903 90.9933 34.8903C90.6543 34.8903 90.321 34.9768 90.0258 35.1415C89.7305 35.3062 89.4832 35.5435 89.3079 35.8304L84.665 46.35ZM108.383 46.35V44.4237H102.777C101.85 44.4237 100.815 44.2745 100.47 43.0804C100.369 42.5651 100.319 42.0415 100.319 41.5167H106.974C107.197 41.5329 107.422 41.5034 107.633 41.43C107.845 41.3566 108.039 41.2409 108.203 41.0902C108.407 40.8564 108.56 40.5837 108.652 40.2891C108.745 39.9944 108.776 39.684 108.742 39.3772C108.742 37.9557 108.44 36.5341 107.125 35.7025C105.956 35.1235 104.647 34.8774 103.344 34.9917C102.259 34.9917 100.319 34.9917 99.0322 36.065C97.7456 37.1383 97.6738 38.6664 97.6738 40.8059C97.6738 42.3198 97.7385 43.8409 98.4931 44.9284C99.4203 46.2576 100.829 46.35 101.993 46.35H108.383ZM100.326 39.5976C100.238 38.9067 100.423 38.209 100.843 37.65C101.168 37.3669 101.55 37.1567 101.965 37.0339C102.379 36.9112 102.816 36.8789 103.244 36.9393C104 36.8634 104.761 37.0438 105.4 37.451C105.628 37.6334 105.81 37.8643 105.935 38.1265C106.059 38.3887 106.122 38.6753 106.119 38.965C106.119 39.2919 106.054 39.6331 105.551 39.6331L100.326 39.5976ZM121.068 46.35L116.188 41.3034C115.95 41.0966 115.784 40.8204 115.714 40.5145C115.777 40.1552 115.969 39.8302 116.253 39.5976L120.565 35.0202H117.561L113.91 39.0361C113.501 39.4325 113.237 39.953 113.162 40.5145C113.206 41.0189 113.436 41.4897 113.809 41.8365L117.978 46.35H121.068ZM112.709 46.35V35.0202H110.179V46.35H112.709ZM130.943 46.35H125.438C124.798 46.3757 124.161 46.2617 123.571 46.016C122.98 45.7703 122.452 45.3989 122.024 44.9284C121.068 43.8196 120.982 42.4336 120.982 40.8059C120.982 39.4412 120.982 37.515 122.283 36.2143C122.75 35.7872 123.301 35.4606 123.903 35.255C124.504 35.0495 125.142 34.9695 125.776 35.0202H130.677V36.9606H126.595C124.884 36.9606 124.065 37.7922 123.785 38.7517C123.646 39.4541 123.581 40.1686 123.591 40.8841C123.56 41.6843 123.684 42.483 123.957 43.2368C124.54 44.3029 125.776 44.4309 126.832 44.4309H130.936L130.943 46.35Z" fill="#0D7EE8"/>
</g>
<defs>
<clipPath id="clip0">
<rect width="220" height="55" fill="white"/>
</clipPath>
</defs>
</svg>
